<svg xmlns="http://www.w3.org/2000/svg" viewBox="0 0 24 24" aria-label="Bus">
  <rect x="1" y="1" width="22" height="22" rx="4" ry="4" stroke="#01157f" stroke-width="2" fill="#01157f"/>
  <path d="M4 16c0 .88.39 1.67 1 2.22V20c0 .55.45 1 1 1h1c.55 0 1-.45 1-1v-1h8v1c0 .55.45 1 1 1h1c.55 0 1-.45 1-1v-1.78c.61-.55 1-1.34 1-2.22V6c0-3-3.58-3-8-3S4 3 4 6v10zm3.5 1c-.83 0-1.5-.67-1.5-1.5S6.67 14 7.5 14 9 14.67 9 15.5 8.33 17 7.5 17zm9 0c-.83 0-1.5-.67-1.5-1.5S15.67 14 16.5 14 18 14.67 18 15.5 17.33 17 16.5 17zM6 11V6h12v5H6z" fill="#ffffff" transform="translate(12 12) scale(0.85) translate(-12 -12)"/>
</svg>
